<svg width="30" height="30" viewBox="0 0 30 30" fill="none" xmlns="http://www.w3.org/2000/svg">
<path d="M9.16992 26.2324L8.43164 27.9609C7.33594 27.4043 6.32812 26.7188 5.41406 25.916L6.74414 24.5859C7.47656 25.2246 8.29102 25.7812 9.16992 26.2324ZM2.37891 15.9375H0.498047C0.580078 17.1797 0.814453 18.3809 1.18359 19.5176L2.92969 18.8203C2.64258 17.9004 2.44922 16.9336 2.37891 15.9375ZM2.37891 14.0625C2.46094 12.9609 2.68359 11.8945 3.0293 10.8926L1.30078 10.1543C0.861328 11.3848 0.585938 12.6973 0.498047 14.0625H2.37891ZM3.76758 9.16992C4.22461 8.29688 4.77539 7.48242 5.41406 6.73828L4.08398 5.4082C3.28125 6.32227 2.58984 7.33008 2.03906 8.42578L3.76758 9.16992ZM23.2617 24.5859C22.4473 25.2891 21.5391 25.8926 20.5605 26.3672L21.2578 28.1133C22.4707 27.5332 23.5898 26.7891 24.5918 25.9102L23.2617 24.5859ZM6.73828 5.41406C7.55273 4.71094 8.46094 4.10742 9.43945 3.63281L8.74219 1.88672C7.5293 2.4668 6.41016 3.21094 5.41406 4.08984L6.73828 5.41406ZM26.2324 20.8301C25.7754 21.7031 25.2246 22.5176 24.5859 23.2617L25.916 24.5918C26.7188 23.6777 27.4102 22.6641 27.9609 21.5742L26.2324 20.8301ZM27.6211 15.9375C27.5391 17.0391 27.3164 18.1055 26.9707 19.1074L28.6992 19.8457C29.1387 18.6094 29.4141 17.2969 29.4961 15.9316H27.6211V15.9375ZM18.8203 27.0703C17.9004 27.3633 16.9336 27.5508 15.9375 27.6211V29.502C17.1797 29.4199 18.3809 29.1855 19.5176 28.8164L18.8203 27.0703ZM14.0625 27.6211C12.9609 27.5391 11.8945 27.3164 10.8926 26.9707L10.1543 28.6992C11.3906 29.1387 12.7031 29.4141 14.0684 29.4961V27.6211H14.0625ZM27.0703 11.1797C27.3633 12.0996 27.5508 13.0664 27.6211 14.0625H29.502C29.4199 12.8203 29.1855 11.6191 28.8164 10.4824L27.0703 11.1797ZM5.41406 23.2617C4.71094 22.4473 4.10742 21.5391 3.63281 20.5605L1.88672 21.2578C2.4668 22.4707 3.21094 23.5898 4.08984 24.5918L5.41406 23.2617ZM15.9375 2.37891C17.0391 2.46094 18.0996 2.68359 19.1074 3.0293L19.8457 1.30078C18.6152 0.861328 17.3027 0.585938 15.9375 0.498047V2.37891ZM11.1797 2.92969C12.0996 2.63672 13.0664 2.44922 14.0625 2.37891V0.498047C12.8203 0.580078 11.6191 0.814453 10.4824 1.18359L11.1797 2.92969ZM25.916 5.4082L24.5859 6.73828C25.2891 7.55273 25.8926 8.46094 26.373 9.43945L28.1191 8.74219C27.5391 7.5293 26.7949 6.41016 25.916 5.4082ZM23.2617 5.41406L24.5918 4.08398C23.6777 3.28125 22.6699 2.58984 21.5742 2.03906L20.8359 3.76758C21.7031 4.22461 22.5234 4.77539 23.2617 5.41406Z" fill="#A1A1AA"/>
<path opacity="0.458292" d="M13.3594 21.3281C13.3594 22.2336 14.0945 22.9688 15 22.9688C15.9055 22.9688 16.6406 22.2336 16.6406 21.3281C16.6406 20.4226 15.9055 19.6875 15 19.6875C14.0945 19.6875 13.3594 20.4226 13.3594 21.3281Z" fill="#A1A1AA"/>
<path opacity="0.458292" d="M13.623 7.88086L14.0332 17.7246C14.0507 18.0996 14.3613 18.3984 14.7363 18.3984H15.2636C15.6386 18.3984 15.9492 18.0996 15.9668 17.7246L16.3769 7.88086C16.3945 7.48242 16.0722 7.14844 15.6738 7.14844H14.3261C13.9277 7.14844 13.6054 7.48242 13.623 7.88086Z" fill="#A1A1AA"/>
</svg>
